<svg xmlns="http://www.w3.org/2000/svg" viewBox="0 0 1200 675" width="100%" height="100%">
  <defs>
    <linearGradient id="bg-grad" x1="0%" y1="0%" x2="100%" y2="100%">
      <stop offset="0%" stop-color="#070b14"/>
      <stop offset="50%" stop-color="#0b1329"/>
      <stop offset="100%" stop-color="#060913"/>
    </linearGradient>
    <linearGradient id="cyan-glow" x1="0%" y1="0%" x2="100%" y2="0%">
      <stop offset="0%" stop-color="#06b6d4"/>
      <stop offset="50%" stop-color="#10b981"/>
      <stop offset="100%" stop-color="#3b82f6"/>
    </linearGradient>
    <filter id="glow" x="-20%" y="-20%" width="140%" height="140%">
      <feGaussianBlur stdDeviation="30" result="blur" />
      <feComposite in="SourceGraphic" in2="blur" operator="over" />
    </filter>
  </defs>

  <rect width="1200" height="675" fill="url(#bg-grad)"/>
  <circle cx="250" cy="200" r="180" fill="#06b6d4" opacity="0.15" filter="url(#glow)"/>
  <circle cx="950" cy="450" r="220" fill="#3b82f6" opacity="0.12" filter="url(#glow)"/>

  <g stroke="#334155" stroke-width="1" opacity="0.15">
    <line x1="100" y1="0" x2="100" y2="675"/>
    <line x1="200" y1="0" x2="200" y2="675"/>
    <line x1="300" y1="0" x2="300" y2="675"/>
    <line x1="400" y1="0" x2="400" y2="675"/>
    <line x1="500" y1="0" x2="500" y2="675"/>
    <line x1="600" y1="0" x2="600" y2="675"/>
    <line x1="700" y1="0" x2="700" y2="675"/>
    <line x1="800" y1="0" x2="800" y2="675"/>
    <line x1="900" y1="0" x2="900" y2="675"/>
    <line x1="1000" y1="0" x2="1000" y2="675"/>
    <line x1="1100" y1="0" x2="1100" y2="675"/>
  </g>

  <g transform="translate(680, 115)">
    <rect width="420" height="420" rx="24" fill="#0f172a" stroke="#1e293b" stroke-width="2"/>
    <g transform="translate(30, 30)">
      <rect x="0" y="0" width="90" height="90" fill="#1e293b"/>
      <rect x="90" y="0" width="90" height="90" fill="#0f172a"/>
      <rect x="180" y="0" width="90" height="90" fill="#1e293b"/>
      <rect x="270" y="0" width="90" height="90" fill="#0f172a"/>
      <rect x="0" y="90" width="90" height="90" fill="#0f172a"/>
      <rect x="90" y="90" width="90" height="90" fill="#06b6d4" opacity="0.3"/>
      <rect x="180" y="90" width="90" height="90" fill="#0f172a"/>
      <rect x="270" y="90" width="90" height="90" fill="#1e293b"/>
      <rect x="0" y="180" width="90" height="90" fill="#1e293b"/>
      <rect x="90" y="180" width="90" height="90" fill="#0f172a"/>
      <rect x="180" y="180" width="90" height="90" fill="#10b981" opacity="0.35"/>
      <rect x="270" y="180" width="90" height="90" fill="#0f172a"/>
      <rect x="0" y="270" width="90" height="90" fill="#0f172a"/>
      <rect x="90" y="270" width="90" height="90" fill="#1e293b"/>
      <rect x="180" y="270" width="90" height="90" fill="#0f172a"/>
      <rect x="270" y="270" width="90" height="90" fill="#1e293b"/>
    </g>
    <g transform="translate(160, 150) scale(1.6)" fill="#38bdf8">
      <path d="M19 22H5V20H19V22M17.5 11.5C17.5 10.1 16.9 8.8 15.9 7.9L16.5 5.5L14.5 4.5L13.8 6.2C13.2 6.1 12.6 6 12 6C9.2 6 7 8.2 7 11C7 11.4 7 11.7 7.1 12.1L4.8 14.4C4.3 14.9 4 15.6 4 16.3C4 17.8 5.2 19 6.7 19H17.3C18.8 19 20 17.8 20 16.3C20 14.2 19 12.4 17.5 11.5Z"/>
    </g>
  </g>

  <g transform="translate(100, 150)">
    <rect width="220" height="40" rx="20" fill="#083344" stroke="#06b6d4" stroke-width="1.5"/>
    <text x="24" y="25" fill="#22d3ee" font-family="system-ui, sans-serif" font-size="14" font-weight="bold" letter-spacing="2">AI CHESS ENGINE</text>
    <text x="0" y="115" fill="#ffffff" font-family="system-ui, sans-serif" font-size="64" font-weight="900">SenKuni</text>
    <text x="0" y="165" fill="url(#cyan-glow)" font-family="system-ui, sans-serif" font-size="26" font-weight="700">Stockfish 16 + Gemini AI Coach</text>
    <text x="0" y="220" fill="#94a3b8" font-family="system-ui, sans-serif" font-size="18">Analisis posisi real-time, evaluasi taktik akurat,</text>
    <text x="0" y="250" fill="#94a3b8" font-family="system-ui, sans-serif" font-size="18">serta panduan langkah strategi berbasis AI.</text>
    <g transform="translate(0, 290)">
      <rect width="130" height="38" rx="12" fill="#1e293b" stroke="#334155"/>
      <text x="20" y="24" fill="#cbd5e1" font-family="system-ui, sans-serif" font-size="13" font-weight="600">Stockfish 16</text>
      <rect x="145" width="135" height="38" rx="12" fill="#1e293b" stroke="#334155"/>
      <text x="165" y="24" fill="#cbd5e1" font-family="system-ui, sans-serif" font-size="13" font-weight="600">Gemini AI API</text>
      <rect x="295" width="130" height="38" rx="12" fill="#1e293b" stroke="#334155"/>
      <text x="315" y="24" fill="#cbd5e1" font-family="system-ui, sans-serif" font-size="13" font-weight="600">Next.js 16</text>
    </g>
  </g>
</svg>
